<svg xmlns="http://www.w3.org/2000/svg" width="600" height="400" viewBox="0 0 600 400">
  <rect width="600" height="400" fill="#f4f6f8"/>
  <g transform="translate(300,180)" fill="none" stroke="#c9ccd2" stroke-width="10" stroke-linejoin="round" stroke-linecap="round">
    <path d="M-120,30 L-95,-25 Q-88,-42 -68,-44 L60,-44 Q80,-44 95,-26 L130,18"/>
    <path d="M-130,30 L140,30 Q150,30 150,42 L150,58 Q150,66 142,66 L-138,66 Q-146,66 -146,58 L-146,42 Q-146,30 -130,30 Z"/>
    <circle cx="-78" cy="66" r="26" fill="#fff"/>
    <circle cx="86" cy="66" r="26" fill="#fff"/>
  </g>
  <g transform="translate(300,250)" fill="#D4AF37" stroke="none">
    <circle cx="-78" cy="-4" r="7"/><circle cx="86" cy="-4" r="7"/>
  </g>
  <text x="300" y="330" text-anchor="middle" font-family="Segoe UI, Arial, sans-serif" font-size="22" font-weight="700" fill="#9aa0a6">Photo bientôt disponible</text>
</svg>
